<svg width="2717" height="625" viewBox="0 0 2717 625" fill="none" xmlns="http://www.w3.org/2000/svg">
<rect y="241.96" width="2104.7" height="353.4" fill="#059551"/>
<g style="mix-blend-mode:multiply" opacity="0.458824">
<path d="M708.238 317.701C919.478 252.476 1171.04 238.284 1393.94 270.582C1662.95 309.561 1922.86 392.997 2202.52 361.984C2325.74 348.32 2478.25 313.386 2593.51 368.777V164.375H708.238V317.701Z" fill="url(#paint0_linear_4_378)"/>
<path d="M2010.24 368.595C1976.12 377.877 1939.08 383.672 1901.8 387.389C1861.9 391.367 1821.21 392.956 1780.7 392.478C1742.45 392.024 1704.06 389.762 1666.8 384.864C1620.35 378.76 1574.95 370.414 1529.96 361.604C1484.89 352.775 1440.14 343.424 1394.73 335.134C1349.7 326.915 1303.97 319.964 1257.52 314.731C1211.08 309.5 1164.02 305.917 1116.73 304.231C1069.61 302.55 1022.25 302.756 975.217 305.111C929.077 307.423 883.062 311.712 838.34 318.493C797.232 324.725 756.757 333.443 721.482 346.953C712.952 350.22 704.757 353.759 696.999 357.577C751.101 352.395 806.016 349.884 860.907 349.939C915.821 349.995 970.64 352.669 1024.77 357.787C1077.83 362.803 1130.8 368.986 1181.42 379.347C1226.27 388.529 1268.8 400.807 1310.65 413.57C1352.43 426.318 1393.72 439.63 1436.71 451.107C1478.74 462.328 1522.6 471.776 1568.47 476.743C1610.12 481.253 1652.98 482.161 1695.19 479.866C1737.57 477.56 1779.43 472.023 1819.07 463.346C1858.45 454.73 1895.72 442.978 1928.59 428.104C1944.1 421.082 1958.01 413.266 1971.75 405.201C1984.48 397.723 1998.19 389.966 2006.33 380.587C2009.51 376.935 2011.98 372.668 2010.24 368.595Z" fill="url(#paint1_linear_4_378)"/>
<path d="M2706.09 625.001C2527.73 594.06 2357.65 532.885 2214.26 448.09C2194.48 436.396 2174.85 424.048 2155.87 412.105C2119.38 389.143 2081.63 365.398 2041.27 345.327C1969.6 309.693 1900.34 291.998 1835.43 292.674C1798.1 293.073 1760.99 299.627 1725.12 305.964C1709.14 308.787 1692.62 311.705 1676.27 314.046C1582.96 327.419 1483.9 322.54 1389.8 299.938C1295.71 277.337 1211.51 238.194 1146.3 186.744L1147.44 185.945C1212.47 237.253 1296.44 276.287 1390.28 298.829C1484.13 321.371 1582.92 326.237 1675.98 312.902C1692.29 310.566 1708.79 307.651 1724.75 304.831C1760.72 298.479 1797.9 291.911 1835.41 291.509C1900.67 290.831 1970.2 308.591 2042.14 344.359C2082.58 364.467 2120.35 388.233 2156.88 411.216C2175.86 423.152 2195.47 435.495 2215.23 447.177C2358.45 531.866 2528.3 592.964 2706.44 623.866L2706.09 625.001Z" fill="url(#paint2_linear_4_378)"/>
<path d="M2706.54 606.702C2527.91 573.813 2357.91 514.135 2214.9 434.118C2195.1 423.034 2175.42 411.347 2156.39 400.044C2133.54 386.469 2109.91 372.432 2085.95 359.374C2069.8 350.575 2054.91 342.98 2040.43 336.156C1968.44 302.21 1899.24 285.247 1834.7 285.729C1797.79 286.005 1761.1 292.005 1725.61 297.808C1709.4 300.459 1692.64 303.2 1676.07 305.363C1587.23 316.94 1493.19 312.189 1404.09 291.628C1356.77 280.709 1310.45 265.258 1266.44 245.704C1222.55 226.207 1182.64 203.545 1147.82 178.345L1148.91 177.51C1183.65 202.647 1223.46 225.254 1267.24 244.705C1311.14 264.211 1357.35 279.624 1404.56 290.515C1493.42 311.023 1587.21 315.759 1675.8 304.215C1692.34 302.057 1709.08 299.318 1725.28 296.671C1760.84 290.855 1797.62 284.841 1834.68 284.564C1899.57 284.073 1969.02 301.103 2041.27 335.172C2055.78 342.011 2070.69 349.62 2086.87 358.435C2110.86 371.506 2134.5 385.551 2157.37 399.134C2176.39 410.431 2196.06 422.114 2215.84 433.187C2358.68 513.111 2528.49 572.72 2706.91 605.571L2706.54 606.702Z" fill="url(#paint3_linear_4_378)"/>
<path d="M2706.98 588.403C2527.66 553.442 2357.73 495.26 2215.54 420.147C2195.75 409.682 2176.06 398.663 2157.02 388.008C2133.77 375.002 2109.73 361.553 2085.41 349.053C2069.17 340.704 2054.18 333.485 2039.6 326.984C1967.29 294.724 1898.12 278.485 1833.96 278.782C1797.52 278.937 1761.27 284.388 1726.22 289.659C1709.74 292.137 1692.7 294.7 1675.86 296.679C1587.04 307.093 1493.58 301.45 1405.59 280.361C1359.88 269.414 1313.86 253.857 1268.79 234.121C1225.67 215.24 1184.37 193.048 1149.35 169.946L1150.38 169.075C1185.33 192.128 1226.55 214.273 1269.58 233.118C1314.55 252.81 1360.47 268.332 1406.07 279.252C1493.83 300.285 1587.04 305.916 1675.62 295.527C1692.42 293.552 1709.45 290.993 1725.91 288.518C1761.04 283.236 1797.36 277.774 1833.95 277.618C1898.46 277.312 1967.85 293.615 2040.41 325.984C2055.02 332.499 2070.03 339.731 2086.3 348.094C2110.65 360.608 2134.7 374.064 2157.96 387.077C2176.99 397.728 2196.68 408.741 2216.45 419.197C2358.48 494.23 2528.24 552.35 2707.38 587.276L2706.98 588.403Z" fill="url(#paint4_linear_4_378)"/>
<path d="M2707.43 570.103C2526.79 532.891 2356.92 476.206 2216.18 406.176C2196.45 396.337 2176.78 385.997 2157.75 375.998C2134.08 363.552 2109.59 350.682 2084.88 338.73C2068.51 330.818 2053.43 323.976 2038.77 317.81C1966.14 287.238 1897.02 271.808 1833.23 271.837C1797.29 271.872 1761.53 276.778 1726.94 281.521C1710.15 283.822 1692.79 286.203 1675.66 287.993C1586.85 297.238 1493.97 290.702 1407.08 269.092C1363.19 258.189 1317.45 242.526 1271.14 222.539C1228.44 204.112 1186.85 183.022 1150.87 161.548L1151.85 160.64C1187.77 182.077 1229.29 203.133 1271.92 221.531C1318.15 241.479 1363.79 257.108 1407.57 267.987C1494.24 289.54 1586.87 296.06 1675.44 286.839C1692.54 285.053 1709.88 282.674 1726.65 280.375C1761.31 275.622 1797.15 270.707 1833.22 270.672H1833.64C1897.56 270.672 1966.83 286.189 2039.54 316.797C2054.23 322.973 2069.34 329.828 2085.73 337.753C2110.47 349.719 2134.97 362.594 2158.66 375.047C2177.67 385.042 2197.33 395.378 2217.06 405.208C2357.65 475.17 2527.37 531.802 2707.85 568.981L2707.43 570.103Z" fill="url(#paint5_linear_4_378)"/>
<path d="M2707.88 551.804C2522.38 511.507 2357.17 457.81 2216.83 392.205C2197.19 383.001 2177.58 373.346 2158.62 364.009C2134.47 352.116 2109.5 339.818 2084.35 328.407C2067.87 320.938 2052.69 314.471 2037.94 308.638C1965 279.75 1895.87 265.033 1832.49 264.892C1832.16 264.891 1831.83 264.891 1831.5 264.891C1796.45 264.891 1761.55 269.214 1727.78 273.396C1710.65 275.518 1692.93 277.712 1675.45 279.308C1586.64 287.375 1494.36 279.944 1408.57 257.825C1366.16 246.903 1321.97 231.571 1273.49 210.955C1231.85 193.251 1189.98 173.262 1152.41 153.15L1153.32 152.205C1190.85 172.293 1232.67 192.26 1274.26 209.944C1322.67 230.524 1366.77 245.826 1409.08 256.724C1494.65 278.786 1586.69 286.195 1675.26 278.152C1692.71 276.559 1710.41 274.366 1727.53 272.246C1761.67 268.018 1796.95 263.632 1832.49 263.727C1896.14 263.868 1965.5 278.632 2038.67 307.609C2053.45 313.453 2068.66 319.931 2085.16 327.412C2110.34 338.835 2135.33 351.139 2159.49 363.037C2178.44 372.371 2198.03 382.021 2217.66 391.218C2357.88 456.766 2522.96 510.419 2708.32 550.686L2707.88 551.804Z" fill="url(#paint6_linear_4_378)"/>
<path d="M2708.33 533.505C2519.08 490.226 2353.93 437.984 2217.47 378.232C2197.99 369.676 2178.51 360.719 2159.68 352.058C2135 340.705 2109.48 328.965 2083.82 318.085C2067.23 311.057 2051.95 304.966 2037.11 299.465C1963.86 272.264 1894.76 258.294 1831.75 257.947C1796.92 257.74 1762.3 261.581 1728.78 265.287C1711.25 267.224 1693.12 269.229 1675.24 270.623C1586.44 277.5 1494.74 269.179 1410.06 246.557C1369.54 235.745 1326.89 220.753 1275.84 199.372C1237.17 183.178 1196.16 164.802 1153.94 144.752L1154.78 143.77C1196.97 163.808 1237.96 182.174 1276.6 198.358C1327.58 219.705 1370.15 234.672 1410.59 245.459C1495.05 268.022 1586.51 276.326 1675.08 269.464C1692.92 268.072 1711.04 266.071 1728.55 264.135C1762.14 260.424 1796.89 256.569 1831.77 256.782C1895.02 257.13 1964.34 271.141 2037.81 298.422C2052.67 303.934 2067.98 310.033 2084.59 317.071C2110.27 327.964 2135.81 339.709 2160.51 351.067C2179.33 359.725 2198.8 368.679 2218.27 377.229C2354.62 436.934 2519.66 489.138 2708.79 532.391L2708.33 533.505Z" fill="url(#paint7_linear_4_378)"/>
<path d="M2708.78 515.207C2507.75 466.888 2351.84 418.924 2218.12 364.26C2198.88 356.368 2179.63 348.128 2161 340.158C2135.7 329.326 2109.54 318.128 2083.29 307.762C2066.6 301.178 2051.22 295.464 2036.28 290.292C1961.68 264.415 1894.54 251.562 1831.02 251.001C1796.9 250.692 1762.88 253.999 1729.97 257.197C1711.98 258.946 1693.37 260.754 1675.04 261.937C1586.23 267.621 1495.12 258.405 1411.56 235.289C1363.01 221.883 1316.9 203.755 1278.19 187.79C1253.47 177.598 1229.04 167.288 1205.4 157.318C1187.8 149.891 1171.17 142.876 1155.48 136.353L1156.24 135.336C1171.94 141.862 1188.57 148.877 1206.17 156.304C1229.8 166.273 1254.24 176.583 1278.94 186.771C1317.61 202.715 1363.66 220.817 1412.1 234.196C1495.45 257.253 1586.33 266.442 1674.9 260.777C1693.2 259.594 1711.79 257.789 1729.77 256.041C1762.73 252.84 1796.82 249.541 1831.04 249.836C1894.79 250.4 1962.14 263.287 2036.94 289.235C2051.91 294.417 2067.31 300.14 2084.02 306.732C2110.29 317.108 2136.47 328.312 2161.79 339.148C2180.4 347.114 2199.65 355.354 2218.88 363.24C2352.5 417.867 2508.33 465.802 2709.26 514.098L2708.78 515.207Z" fill="url(#paint8_linear_4_378)"/>
<path d="M2709.23 496.906C2555.2 458.055 2376.47 410.253 2218.77 350.289C2199.87 343.078 2180.95 335.568 2162.64 328.306C2136.61 317.98 2109.7 307.305 2082.76 297.439C2065.97 291.298 2050.49 285.96 2035.45 281.118C1960.54 256.949 1893.43 244.826 1830.28 244.056C1796.88 243.645 1763.59 246.433 1731.37 249.133C1712.85 250.684 1693.69 252.288 1674.83 253.252C1586.02 257.732 1495.5 247.622 1413.05 224.021C1367.09 210.889 1322.39 193.2 1280.54 176.206C1234.39 157.47 1193.24 140.905 1157.02 127.953L1157.7 126.903C1193.95 139.869 1235.12 156.439 1281.29 175.184C1323.09 192.159 1367.74 209.827 1413.61 222.933C1495.85 246.474 1586.14 256.559 1674.72 252.09C1693.55 251.128 1712.69 249.525 1731.2 247.975C1763.46 245.272 1796.82 242.481 1830.31 242.891C1893.67 243.663 1960.98 255.818 2036.07 280.049C2051.14 284.898 2066.64 290.245 2083.45 296.392C2110.41 306.268 2137.34 316.948 2163.37 327.277C2181.68 334.538 2200.6 342.045 2219.48 349.251C2377.1 409.181 2555.75 456.965 2709.73 495.803L2709.23 496.906Z" fill="url(#paint9_linear_4_378)"/>
<path d="M2709.68 478.607L2681.77 471.237C2526.08 430.123 2365.07 387.608 2219.42 336.316C2201.01 329.807 2182.55 323.049 2164.69 316.512C2137.8 306.673 2110.01 296.498 2082.22 287.114C2065.34 281.419 2049.77 276.456 2034.62 271.943C1959.42 249.482 1892.34 238.088 1829.54 237.111C1797.01 236.595 1764.49 238.885 1733.05 241.097C1713.9 242.444 1694.1 243.837 1674.62 244.567C1585.81 247.828 1495.88 236.829 1414.54 212.753C1371.26 199.963 1329.29 183.179 1288.7 166.949L1282.89 164.624C1249.5 151.28 1200.28 132.089 1158.57 119.552L1159.15 118.472C1200.94 131.03 1250.2 150.241 1283.63 163.597L1289.44 165.923C1329.99 182.138 1371.92 198.906 1415.12 211.669C1496.25 235.686 1585.96 246.658 1674.55 243.403C1693.99 242.674 1713.77 241.282 1732.9 239.937C1764.38 237.722 1796.94 235.433 1829.58 235.946C1892.56 236.927 1959.82 248.348 2035.21 270.862C2050.37 275.381 2065.97 280.351 2082.87 286.054C2110.67 295.445 2138.48 305.624 2165.38 315.468C2183.23 322.001 2201.69 328.758 2220.09 335.263C2365.67 386.53 2526.63 429.035 2682.3 470.138L2710.2 477.509L2709.68 478.607Z" fill="url(#paint10_linear_4_378)"/>
<path d="M2710.13 460.306C2662.68 447.179 2613.98 434.132 2566.87 421.515C2450.8 390.423 2330.77 358.271 2220.06 322.342C2202.34 316.562 2184.53 310.58 2167.31 304.796C2139.38 295.416 2110.5 285.715 2081.7 276.789C2064.71 271.535 2049.04 266.949 2033.8 262.77C1958.3 242.015 1891.24 231.35 1828.81 230.165C1797.2 229.559 1765.6 231.359 1735.04 233.098C1715.17 234.231 1694.61 235.4 1674.42 235.88C1585.59 237.926 1496.25 226.028 1416.03 201.483C1378.43 190 1341.74 175.44 1306.26 161.358C1299.25 158.578 1292.25 155.798 1285.24 153.04C1234.14 132.946 1193.21 119.243 1160.12 111.149L1160.6 110.041C1193.78 118.157 1234.79 131.885 1285.97 152.011C1292.98 154.768 1299.99 157.549 1307 160.331C1342.44 174.398 1379.1 188.944 1416.63 200.407C1496.64 224.887 1585.77 236.754 1674.37 234.715C1694.53 234.238 1715.07 233.068 1734.93 231.937C1765.52 230.194 1797.16 228.395 1828.85 229C1891.46 230.189 1958.67 240.876 2034.34 261.676C2049.61 265.861 2065.29 270.453 2082.3 275.714C2111.12 284.646 2140.01 294.35 2167.95 303.734C2185.17 309.518 2202.98 315.499 2220.69 321.274C2331.35 357.187 2451.35 389.332 2567.4 420.419C2614.51 433.037 2663.22 446.085 2710.67 459.214L2710.13 460.306Z" fill="url(#paint11_linear_4_378)"/>
<path d="M2710.57 442.007C2633.86 419.816 2554.48 398.953 2477.71 378.779C2392.16 356.296 2303.7 333.048 2220.71 308.369C2203.92 303.349 2187.02 298.172 2170.68 293.166C2141.46 284.213 2111.25 274.956 2081.17 266.465C2064.08 261.649 2048.31 257.439 2032.97 253.594C1957.19 234.547 1890.17 224.611 1828.07 223.22C1797.54 222.531 1766.99 223.861 1737.45 225.148C1716.71 226.052 1695.26 226.987 1674.21 227.195C1584.1 228.016 1497.75 215.573 1417.52 190.215C1384.41 179.766 1351.95 166.887 1320.56 154.432C1309.77 150.149 1298.61 145.72 1287.59 141.457C1237.67 122.148 1195.31 109.122 1161.67 102.742L1162.05 101.613C1195.81 108.016 1238.29 121.074 1288.31 140.423C1299.34 144.689 1310.5 149.119 1321.3 153.403C1352.66 165.848 1385.08 178.714 1418.13 189.143C1498.16 214.436 1584.32 226.865 1674.19 226.03C1695.21 225.822 1716.64 224.889 1737.36 223.986C1766.94 222.696 1797.52 221.365 1828.12 222.056C1890.37 223.451 1957.54 233.406 2033.47 252.491C2048.83 256.34 2064.61 260.554 2081.72 265.376C2111.82 273.873 2142.05 283.133 2171.28 292.089C2187.62 297.095 2204.51 302.269 2221.29 307.288C2304.25 331.958 2392.7 355.202 2478.23 377.68C2555.01 397.858 2634.4 418.723 2711.14 440.921L2710.57 442.007Z" fill="url(#paint12_linear_4_378)"/>
<path d="M2711.02 423.706C2611.01 393.493 2506.6 367.25 2405.62 341.871C2344.57 326.526 2281.44 310.659 2221.36 294.394C2205.91 290.189 2190.34 285.868 2175.29 281.691C2144.37 273.114 2112.4 264.243 2080.64 256.14C2063.47 251.767 2047.6 247.934 2032.14 244.419C1956.1 227.079 1889.11 217.873 1827.34 216.274C1798.05 215.511 1768.73 216.399 1740.37 217.257C1718.6 217.918 1696.08 218.605 1674 218.508C1583.89 218.067 1498.1 204.757 1419.02 178.947C1389.53 169.342 1360.54 157.776 1332.5 146.592C1318.59 141.041 1304.21 135.302 1289.94 129.875C1240.2 110.953 1197.57 98.9955 1163.22 94.3336L1163.5 93.1885C1198 97.8702 1240.78 109.864 1290.65 128.837C1304.93 134.27 1319.33 140.012 1333.24 145.565C1361.26 156.739 1390.22 168.294 1419.65 177.88C1498.53 203.625 1584.11 216.903 1674.01 217.343C1696.05 217.435 1718.55 216.753 1740.31 216.093C1768.7 215.234 1798.05 214.345 1827.39 215.11C1889.3 216.712 1956.43 225.936 2032.6 243.305C2048.08 246.823 2063.96 250.661 2081.15 255.038C2112.93 263.146 2144.91 272.019 2175.83 280.6C2190.89 284.777 2206.45 289.096 2221.9 293.299C2281.96 309.559 2345.08 325.424 2406.12 340.767C2507.12 366.152 2611.56 392.401 2711.61 422.627L2711.02 423.706Z" fill="url(#paint13_linear_4_378)"/>
<path d="M2711.47 405.407C2592.51 367.911 2467.03 338.408 2345.68 309.877C2304.86 300.28 2262.66 290.357 2222.01 280.421C2208.5 277.097 2195.06 273.749 2181.66 270.411C2148.47 262.139 2114.14 253.584 2080.12 245.815C2062.85 241.882 2046.89 238.425 2031.31 235.245C1955.03 219.611 1888.07 211.135 1826.6 209.329C1798.8 208.508 1770.93 208.984 1743.97 209.446C1720.94 209.838 1697.12 210.246 1673.8 209.822C1583.67 208.111 1498.45 193.931 1420.51 167.678C1394.04 158.778 1367.93 148.266 1342.69 138.103C1326.25 131.48 1309.24 124.634 1292.29 118.291C1243.28 99.9627 1199.19 88.7715 1164.77 85.9245L1164.94 84.7666C1199.55 87.6288 1243.82 98.8607 1292.99 117.251C1309.97 123.601 1326.98 130.452 1343.44 137.078C1368.65 147.233 1394.73 157.733 1421.15 166.617C1498.91 192.806 1583.92 206.95 1673.83 208.657C1697.12 209.083 1720.92 208.674 1743.93 208.281C1770.91 207.819 1798.81 207.341 1826.66 208.165C1888.25 209.973 1955.33 218.464 2031.73 234.12C2047.32 237.304 2063.3 240.765 2080.57 244.701C2114.62 252.475 2148.96 261.032 2182.16 269.306C2195.56 272.644 2208.99 275.992 2222.5 279.314C2263.13 289.248 2305.34 299.171 2346.15 308.766C2467.54 337.306 2593.05 366.817 2712.08 404.334L2711.47 405.407Z" fill="url(#paint14_linear_4_378)"/>
<path d="M2711.92 387.106C2577.31 342.881 2433.65 311.951 2294.72 282.04C2271.01 276.935 2246.49 271.657 2222.66 266.445C2212.06 264.113 2201.5 261.773 2190.97 259.439C2154.53 251.363 2116.85 243.012 2079.59 235.488C2062.28 232.003 2046.22 228.921 2030.49 226.067C1954 212.143 1887.07 204.397 1825.86 202.383C1799.83 201.523 1773.71 201.63 1748.44 201.735C1723.85 201.836 1698.44 201.94 1673.59 201.135C1583.45 198.143 1498.8 183.094 1422 156.41C1398.05 148.103 1374.39 138.456 1351.51 129.126C1333 121.577 1313.85 113.771 1294.64 106.709C1260.43 94.1347 1210.41 78.8617 1166.32 77.5104L1166.39 76.3467C1210.74 77.7073 1260.99 93.0397 1295.33 105.664C1314.58 112.738 1333.73 120.55 1352.26 128.104C1375.12 137.426 1398.76 147.063 1422.66 155.354C1499.27 181.974 1583.72 196.986 1673.66 199.971C1698.47 200.776 1723.87 200.673 1748.43 200.57C1773.72 200.465 1799.87 200.358 1825.93 201.219C1887.24 203.237 1954.27 210.994 2030.86 224.936C2046.61 227.792 2062.68 230.876 2080 234.364C2117.28 241.891 2154.97 250.245 2191.42 258.322C2201.95 260.657 2212.51 262.996 2223.1 265.328C2246.93 270.539 2271.45 275.817 2295.16 280.921C2434.14 310.843 2577.85 341.784 2712.55 386.041L2711.92 387.106Z" fill="url(#paint15_linear_4_378)"/>
<path d="M2712.36 368.804C2564.73 318.287 2405.09 287.514 2250.7 257.755C2241.55 255.99 2232.41 254.23 2223.31 252.468L2205.79 249.056C2164.29 240.967 2121.38 232.602 2079.06 225.162C2061.71 222.117 2045.55 219.412 2029.66 216.891C1953.02 204.678 1886.12 197.661 1825.13 195.437C1801.28 194.564 1777.31 194.36 1754.13 194.162C1727.6 193.935 1700.16 193.7 1673.38 192.448C1583.22 188.164 1499.15 172.248 1423.49 145.141C1401.7 137.345 1380.13 128.418 1359.27 119.787C1339.04 111.416 1318.13 102.759 1296.99 95.1245C1262.72 82.7463 1212.5 68.1908 1167.88 69.0936L1167.84 67.9299C1212.75 66.9992 1263.24 81.6408 1297.67 94.0772C1318.85 101.726 1339.78 110.389 1360.03 118.768C1380.87 127.392 1402.42 136.311 1424.17 144.091C1499.65 171.133 1583.52 187.012 1673.48 191.286C1700.21 192.537 1727.63 192.77 1754.15 192.997C1777.34 193.195 1801.33 193.4 1825.2 194.274C1886.28 196.501 1953.27 203.526 2029.99 215.752C2045.88 218.275 2062.05 220.981 2079.42 224.027C2121.76 231.472 2164.68 239.839 2206.19 247.93L2223.7 251.342C2232.81 253.101 2241.94 254.862 2251.1 256.627C2405.55 286.399 2565.25 317.187 2713.02 367.747L2712.36 368.804Z" fill="url(#paint16_linear_4_378)"/>
<path d="M2712.81 350.504C2554.46 294.119 2378.87 264.566 2223.96 238.492C2172.24 229.729 2125.61 221.899 2078.54 214.834C2061.16 212.233 2044.9 209.904 2028.84 207.714C1952.15 197.216 1885.28 190.929 1824.39 188.492C1803.3 187.644 1782.07 187.205 1761.53 186.779C1732.47 186.177 1702.43 185.553 1673.17 183.761C1583 178.176 1499.5 161.391 1424.98 133.871C1405.05 126.521 1385.29 118.205 1366.18 110.163C1344.53 101.052 1322.13 91.6288 1299.34 83.5421C1264.97 71.3503 1214.54 57.4903 1169.43 60.6751L1169.28 59.5161C1214.75 56.2998 1265.47 70.2355 1300.01 82.4902C1322.86 90.5944 1345.27 100.028 1366.95 109.149C1386.04 117.183 1405.78 125.491 1425.68 132.829C1500.02 160.282 1583.33 177.027 1673.3 182.6C1702.52 184.39 1732.54 185.013 1761.57 185.614C1782.12 186.04 1803.37 186.481 1824.48 187.329C1885.43 189.769 1952.37 196.062 2029.12 206.569C2045.19 208.759 2061.46 211.089 2078.84 213.691C2125.94 220.76 2172.58 228.59 2224.31 237.356C2379.3 263.443 2554.97 293.012 2713.49 349.453L2712.81 350.504Z" fill="url(#paint17_linear_4_378)"/>
<path d="M2713.26 332.203C2560.7 275.715 2388.21 248.03 2224.61 224.516C2184.5 218.71 2131.59 211.188 2078.01 204.506C2060.94 202.383 2044.12 200.375 2028.01 198.537C1951.49 189.767 1884.64 184.209 1823.65 181.546C1806.17 180.781 1788.52 180.213 1771.46 179.665C1739.04 178.622 1705.52 177.545 1672.97 175.074C1582.78 168.176 1499.85 150.522 1426.48 122.603C1408.16 115.64 1389.97 107.846 1372.38 100.31C1349.54 90.5209 1325.92 80.4003 1301.69 71.9583C1252.96 54.9823 1206.53 47.9847 1170.98 52.254L1170.73 51.1043C1196.1 48.0593 1239.53 49.0203 1302.36 70.9029C1326.65 79.3659 1350.29 89.5005 1373.17 99.3008C1390.74 106.83 1408.9 114.616 1427.19 121.565C1500.39 149.419 1583.13 167.033 1673.12 173.915C1705.64 176.382 1739.13 177.458 1771.52 178.501C1788.59 179.05 1806.25 179.617 1823.75 180.383C1884.79 183.048 1951.68 188.61 2028.25 197.386C2044.36 199.225 2061.19 201.234 2078.27 203.358C2131.87 210.042 2184.79 217.565 2224.91 223.372C2388.61 246.903 2561.22 274.607 2713.96 331.161L2713.26 332.203Z" fill="url(#paint18_linear_4_378)"/>
<path d="M2713.71 313.903C2557.24 253.705 2379.54 228.984 2225.26 210.538C2172.26 204.157 2123.92 198.805 2077.48 194.177C2060.63 192.502 2043.71 190.882 2027.18 189.359C1951.4 182.345 1884.59 177.518 1822.92 174.601C1810.37 174.006 1797.68 173.469 1785.4 172.949C1748.29 171.378 1709.91 169.753 1672.76 166.386C1582.55 158.166 1500.19 139.643 1427.97 111.334C1411.06 104.715 1394.27 97.3765 1378.02 90.2788C1354.19 79.8635 1329.54 69.0928 1304.04 60.3759C1255.14 43.6538 1208.43 37.7781 1172.53 43.8309L1172.18 42.6939C1208.42 36.5864 1255.48 42.4912 1304.7 59.317C1330.26 68.0596 1354.94 78.8442 1378.82 89.2747C1395.05 96.3654 1411.82 103.697 1428.7 110.303C1500.76 138.546 1582.93 157.026 1672.95 165.231C1710.05 168.593 1748.4 170.215 1785.49 171.786C1797.77 172.306 1810.46 172.843 1823.02 173.439C1884.72 176.357 1951.57 181.186 2027.38 188.204C2043.9 189.726 2060.83 191.348 2077.69 193.023C2124.14 197.652 2172.5 203.006 2225.51 209.388C2379.91 227.849 2557.76 252.591 2714.43 312.867L2713.71 313.903Z" fill="url(#paint19_linear_4_378)"/>
<path d="M2714.16 295.601C2562.88 235.163 2390.09 212.283 2225.91 196.56C2178.06 191.946 2127.94 187.669 2076.96 183.848C2060.63 182.628 2043.61 181.395 2026.36 180.182C1955.09 175.143 1886.4 170.928 1822.18 167.656C1816.83 167.382 1811.49 167.113 1806.15 166.845C1762.07 164.627 1716.49 162.332 1672.55 157.698C1582.33 148.144 1500.55 128.753 1429.46 100.064C1413.81 93.7523 1398.24 86.8119 1383.19 80.0997C1358.52 69.0973 1333.01 57.7209 1306.39 48.7931C1257.3 32.3226 1210.31 27.5687 1174.07 35.405L1173.64 34.2866C1210.23 26.3735 1257.61 31.1484 1307.04 47.7307C1333.73 56.6865 1359.28 68.0815 1384 79.1003C1399.03 85.8066 1414.59 92.7412 1430.21 99.0398C1501.13 127.663 1582.74 147.01 1672.77 156.545C1716.65 161.173 1760.18 163.364 1806.26 165.682C1811.59 165.95 1816.94 166.219 1822.29 166.493C1886.52 169.767 1955.23 173.981 2026.51 179.022C2043.76 180.234 2060.78 181.469 2077.11 182.689C2128.12 186.511 2178.24 190.79 2226.11 195.406C2390.44 211.141 2563.4 234.048 2714.9 294.575L2714.16 295.601Z" fill="url(#paint20_linear_4_378)"/>
<path d="M2714.61 277.3C2561.65 213.88 2382.06 193.831 2226.56 182.582C2181.34 179.29 2133.63 176.409 2076.43 173.519C2059.56 172.669 2042.59 171.835 2025.53 171.003L1991.25 169.328C1935.62 166.613 1878.1 163.807 1821.44 160.71C1773.22 158.07 1721.99 154.992 1672.34 149.011C1582.11 138.112 1500.9 117.852 1430.95 88.796C1416.41 82.7595 1401.94 76.1685 1387.95 69.7953C1362.58 58.2407 1336.35 46.2924 1308.74 37.2097C1259.45 20.9908 1212.17 17.3598 1175.61 26.9784L1175.09 25.8799C1212.03 16.1611 1259.72 19.8049 1309.38 36.1438C1337.08 45.2579 1363.35 57.2261 1388.77 68.8005C1402.75 75.169 1417.2 81.753 1431.71 87.7779C1501.5 116.769 1582.54 136.983 1672.59 147.861C1722.17 153.836 1773.37 156.91 1821.56 159.548C1878.21 162.646 1935.73 165.451 1991.35 168.165L2025.63 169.84C2042.69 170.672 2059.66 171.505 2076.54 172.355C2133.75 175.248 2181.47 178.13 2226.71 181.423C2329.46 188.856 2407.15 197.765 2478.6 210.311C2569.24 226.227 2646.69 247.806 2715.37 276.282L2714.61 277.3Z" fill="url(#paint21_linear_4_378)"/>
<path d="M2715.06 258.998C2561.5 192.96 2382.27 176.244 2227.21 168.603C2173.29 165.933 2120.47 164.367 2075.91 163.187L2066.42 162.938C2052.57 162.572 2038.66 162.206 2024.71 161.823C1959.75 160.033 1890.08 157.817 1820.71 153.764C1760.58 150.25 1714.76 146.104 1672.13 140.321C1580.62 127.895 1502.22 107.355 1432.44 77.5264C1418.9 71.738 1405.41 65.4592 1392.37 59.3866C1366.42 47.3066 1339.58 34.8166 1311.09 25.6255C1244.31 4.08308 1198.51 11.9438 1177.15 18.5499L1176.55 17.4736C1198.14 10.7999 1244.4 2.84363 1311.72 24.5573C1340.31 33.7822 1367.2 46.2966 1393.2 58.3988C1406.23 64.4655 1419.71 70.7385 1433.22 76.5164C1502.84 106.277 1581.08 126.774 1672.42 139.176C1714.99 144.951 1760.76 149.092 1820.83 152.602C1890.18 156.653 1959.83 158.869 2024.76 160.659C2038.72 161.041 2052.62 161.408 2066.48 161.773L2075.96 162.023C2120.53 163.203 2173.37 164.769 2227.31 167.44C2382.56 175.091 2562 191.831 2715.84 257.989L2715.06 258.998Z" fill="url(#paint22_linear_4_378)"/>
<path d="M2715.5 240.696C2630.74 202.908 2529.91 178.31 2407.25 165.496C2300.68 154.363 2189.46 153.165 2075.38 152.857C1956.21 152.534 1848.97 151.389 1743.29 140.591C1620.29 128.024 1519.1 103.709 1433.94 66.2562C1421.29 60.6938 1408.68 54.6922 1396.49 48.8887C1370.06 36.309 1342.73 23.3006 1313.45 14.0431C1246.38 -7.16035 1200.23 2.48503 1178.69 10.1209L1178.02 9.07018C1199.79 1.34924 1246.42 -8.41143 1314.06 12.9703C1343.46 22.2661 1370.85 35.3014 1397.33 47.9079C1409.51 53.7056 1422.11 59.7001 1434.73 65.2532C1519.71 102.625 1620.71 126.891 1743.5 139.437C1849.09 150.226 1956.27 151.369 2075.38 151.692C2189.52 152 2300.81 153.199 2407.47 164.343C2530.34 177.179 2631.36 201.827 2716.31 239.697L2715.5 240.696Z" fill="url(#paint23_linear_4_378)"/>
</g>
<defs>
<linearGradient id="paint0_linear_4_378" x1="1179.56" y1="215.476" x2="1179.56" y2="215.476" gradientUnits="userSpaceOnUse">
<stop offset="0.938932" stop-color="#3087CF"/>
<stop stop-color="#D7EDFD" stop-opacity="0"/>
</linearGradient>
<linearGradient id="paint1_linear_4_378" x1="1025.45" y1="347.618" x2="1025.45" y2="347.618" gradientUnits="userSpaceOnUse">
<stop offset="1" stop-color="#D7EDFD" stop-opacity="0"/>
<stop offset="0.0614296" stop-color="#ABE1FF"/>
</linearGradient>
<linearGradient id="paint2_linear_4_378" x1="1536.33" y1="295.709" x2="1536.33" y2="295.709" gradientUnits="userSpaceOnUse">
<stop offset="0.938195" stop-color="#19ADFF"/>
<stop stop-color="#D7EDFD" stop-opacity="0"/>
</linearGradient>
<linearGradient id="paint3_linear_4_378" x1="1537.59" y1="284.808" x2="1537.59" y2="284.808" gradientUnits="userSpaceOnUse">
<stop offset="0.938195" stop-color="#19ADFF"/>
<stop stop-color="#D7EDFD" stop-opacity="0"/>
</linearGradient>
<linearGradient id="paint4_linear_4_378" x1="1538.85" y1="273.907" x2="1538.85" y2="273.907" gradientUnits="userSpaceOnUse">
<stop offset="0.938195" stop-color="#19ADFF"/>
<stop stop-color="#D7EDFD" stop-opacity="0"/>
</linearGradient>
<linearGradient id="paint5_linear_4_378" x1="1540.12" y1="263.006" x2="1540.12" y2="263.006" gradientUnits="userSpaceOnUse">
<stop offset="0.938195" stop-color="#19ADFF"/>
<stop stop-color="#D7EDFD" stop-opacity="0"/>
</linearGradient>
<linearGradient id="paint6_linear_4_378" x1="1541.38" y1="252.104" x2="1541.38" y2="252.104" gradientUnits="userSpaceOnUse">
<stop offset="0.938195" stop-color="#19ADFF"/>
<stop stop-color="#D7EDFD" stop-opacity="0"/>
</linearGradient>
<linearGradient id="paint7_linear_4_378" x1="1542.65" y1="241.203" x2="1542.65" y2="241.203" gradientUnits="userSpaceOnUse">
<stop offset="0.938195" stop-color="#19ADFF"/>
<stop stop-color="#D7EDFD" stop-opacity="0"/>
</linearGradient>
<linearGradient id="paint8_linear_4_378" x1="1543.93" y1="230.304" x2="1543.93" y2="230.304" gradientUnits="userSpaceOnUse">
<stop offset="0.938195" stop-color="#19ADFF"/>
<stop stop-color="#D7EDFD" stop-opacity="0"/>
</linearGradient>
<linearGradient id="paint9_linear_4_378" x1="1545.2" y1="219.404" x2="1545.2" y2="219.404" gradientUnits="userSpaceOnUse">
<stop offset="0.938195" stop-color="#19ADFF"/>
<stop stop-color="#D7EDFD" stop-opacity="0"/>
</linearGradient>
<linearGradient id="paint10_linear_4_378" x1="1546.48" y1="208.505" x2="1546.48" y2="208.505" gradientUnits="userSpaceOnUse">
<stop offset="0.938195" stop-color="#19ADFF"/>
<stop stop-color="#D7EDFD" stop-opacity="0"/>
</linearGradient>
<linearGradient id="paint11_linear_4_378" x1="1547.75" y1="197.607" x2="1547.75" y2="197.607" gradientUnits="userSpaceOnUse">
<stop offset="0.938195" stop-color="#19ADFF"/>
<stop stop-color="#D7EDFD" stop-opacity="0"/>
</linearGradient>
<linearGradient id="paint12_linear_4_378" x1="1549.03" y1="186.712" x2="1549.03" y2="186.712" gradientUnits="userSpaceOnUse">
<stop offset="0.938195" stop-color="#19ADFF"/>
<stop stop-color="#D7EDFD" stop-opacity="0"/>
</linearGradient>
<linearGradient id="paint13_linear_4_378" x1="1550.32" y1="175.818" x2="1550.32" y2="175.818" gradientUnits="userSpaceOnUse">
<stop offset="0.938195" stop-color="#19ADFF"/>
<stop stop-color="#D7EDFD" stop-opacity="0"/>
</linearGradient>
<linearGradient id="paint14_linear_4_378" x1="1551.6" y1="164.927" x2="1551.6" y2="164.927" gradientUnits="userSpaceOnUse">
<stop offset="0.938195" stop-color="#19ADFF"/>
<stop stop-color="#D7EDFD" stop-opacity="0"/>
</linearGradient>
<linearGradient id="paint15_linear_4_378" x1="1552.88" y1="154.037" x2="1552.88" y2="154.037" gradientUnits="userSpaceOnUse">
<stop offset="0.938195" stop-color="#19ADFF"/>
<stop stop-color="#D7EDFD" stop-opacity="0"/>
</linearGradient>
<linearGradient id="paint16_linear_4_378" x1="1554.13" y1="143.117" x2="1554.13" y2="143.117" gradientUnits="userSpaceOnUse">
<stop offset="0.938195" stop-color="#19ADFF"/>
<stop stop-color="#D7EDFD" stop-opacity="0"/>
</linearGradient>
<linearGradient id="paint17_linear_4_378" x1="1555.33" y1="131.911" x2="1555.33" y2="131.911" gradientUnits="userSpaceOnUse">
<stop offset="0.938195" stop-color="#19ADFF"/>
<stop stop-color="#D7EDFD" stop-opacity="0"/>
</linearGradient>
<linearGradient id="paint18_linear_4_378" x1="1556.54" y1="120.428" x2="1556.54" y2="120.428" gradientUnits="userSpaceOnUse">
<stop offset="0.938195" stop-color="#19ADFF"/>
<stop stop-color="#D7EDFD" stop-opacity="0"/>
</linearGradient>
<linearGradient id="paint19_linear_4_378" x1="1557.74" y1="108.736" x2="1557.74" y2="108.736" gradientUnits="userSpaceOnUse">
<stop offset="0.938195" stop-color="#19ADFF"/>
<stop stop-color="#D7EDFD" stop-opacity="0"/>
</linearGradient>
<linearGradient id="paint20_linear_4_378" x1="1558.95" y1="96.8189" x2="1558.95" y2="96.8189" gradientUnits="userSpaceOnUse">
<stop offset="0.938195" stop-color="#19ADFF"/>
<stop stop-color="#D7EDFD" stop-opacity="0"/>
</linearGradient>
<linearGradient id="paint21_linear_4_378" x1="1560.16" y1="84.7344" x2="1560.16" y2="84.7344" gradientUnits="userSpaceOnUse">
<stop offset="0.938195" stop-color="#19ADFF"/>
<stop stop-color="#D7EDFD" stop-opacity="0"/>
</linearGradient>
<linearGradient id="paint22_linear_4_378" x1="1561.37" y1="72.5252" x2="1561.37" y2="72.5252" gradientUnits="userSpaceOnUse">
<stop offset="0.938195" stop-color="#19ADFF"/>
<stop stop-color="#D7EDFD" stop-opacity="0"/>
</linearGradient>
<linearGradient id="paint23_linear_4_378" x1="1562.59" y1="60.174" x2="1562.59" y2="60.174" gradientUnits="userSpaceOnUse">
<stop offset="0.938195" stop-color="#19ADFF"/>
<stop stop-color="#D7EDFD" stop-opacity="0"/>
</linearGradient>
</defs>
</svg>
