<svg width="83" height="13" viewBox="0 0 83 13" fill="none" xmlns="http://www.w3.org/2000/svg">
<path d="M10.807 1.47998L6.631 12.6001H4.519L0.326996 1.47998H2.27899L5.575 10.728L8.88699 1.47998H10.807ZM13.255 2.61621C12.9243 2.61621 12.647 2.50415 12.423 2.28003C12.199 2.05615 12.087 1.77881 12.087 1.448C12.087 1.11743 12.199 0.840088 12.423 0.616211C12.647 0.39209 12.9243 0.280029 13.255 0.280029C13.575 0.280029 13.847 0.39209 14.071 0.616211C14.295 0.840088 14.407 1.11743 14.407 1.448C14.407 1.77881 14.295 2.05615 14.071 2.28003C13.847 2.50415 13.575 2.61621 13.255 2.61621ZM14.151 3.78418V12.6001H12.327V3.78418H14.151ZM24.631 7.97607C24.631 8.30688 24.6096 8.60547 24.567 8.87207H17.831C17.8843 9.57617 18.1457 10.1414 18.615 10.5681C19.0843 10.9949 19.6603 11.208 20.343 11.208C21.3243 11.208 22.0177 10.7974 22.423 9.97607H24.391C24.1243 10.7869 23.6417 11.4507 22.943 11.968C22.2443 12.4854 21.3777 12.7441 20.343 12.7441C19.5003 12.7441 18.7457 12.5547 18.079 12.176C17.4123 11.7974 16.8897 11.2642 16.511 10.5762C16.1323 9.88818 15.943 9.09082 15.943 8.18408C15.943 7.27734 16.127 6.47998 16.495 5.79199C16.863 5.104 17.3803 4.57349 18.047 4.2002C18.7137 3.82666 19.479 3.64014 20.343 3.64014C21.175 3.64014 21.9163 3.82153 22.567 4.18408C23.2177 4.54688 23.7243 5.05615 24.087 5.71216C24.4497 6.36816 24.631 7.1228 24.631 7.97607ZM22.727 7.40015C22.7163 6.72803 22.4763 6.18945 22.007 5.78418C21.5377 5.37866 20.9563 5.17603 20.263 5.17603C19.6337 5.17603 19.095 5.37598 18.647 5.77612C18.199 6.17603 17.9323 6.71753 17.847 7.40015H22.727ZM38.263 3.78418L35.527 12.6001H33.607L31.831 6.08813L30.055 12.6001H28.135L25.383 3.78418H27.239L29.079 10.8721L30.951 3.78418H32.855L34.647 10.8401L36.471 3.78418H38.263ZM55.495 1.47998V12.6001H53.671V4.98413L50.279 12.6001H49.015L45.607 4.98413V12.6001H43.783V1.47998H45.751L49.655 10.2002L53.543 1.47998H55.495ZM61.719 12.7441C60.887 12.7441 60.135 12.5547 59.463 12.176C58.791 11.7974 58.263 11.2642 57.879 10.5762C57.495 9.88818 57.303 9.09082 57.303 8.18408C57.303 7.28809 57.5003 6.49341 57.895 5.80005C58.2897 5.10669 58.8283 4.57349 59.511 4.2002C60.1937 3.82666 60.9563 3.64014 61.799 3.64014C62.6417 3.64014 63.4043 3.82666 64.087 4.2002C64.7697 4.57349 65.3083 5.10669 65.703 5.80005C66.0977 6.49341 66.295 7.28809 66.295 8.18408C66.295 9.08008 66.0923 9.87476 65.687 10.5681C65.2817 11.2615 64.7297 11.7974 64.031 12.176C63.3323 12.5547 62.5616 12.7441 61.719 12.7441ZM61.719 11.1602C62.1883 11.1602 62.6283 11.0481 63.039 10.8242C63.4496 10.6001 63.783 10.2642 64.039 9.81616C64.295 9.36816 64.423 8.82422 64.423 8.18408C64.423 7.54419 64.3003 7.00269 64.055 6.56006C63.8097 6.11743 63.4843 5.78418 63.079 5.56006C62.6737 5.33618 62.2363 5.22412 61.767 5.22412C61.2977 5.22412 60.863 5.33618 60.463 5.56006C60.063 5.78418 59.7457 6.11743 59.511 6.56006C59.2763 7.00269 59.159 7.54419 59.159 8.18408C59.159 9.13354 59.4017 9.8667 59.887 10.384C60.3723 10.9014 60.983 11.1602 61.719 11.1602ZM69.927 5.06421C70.1937 4.61621 70.5483 4.26685 70.991 4.01611C71.4337 3.76538 71.959 3.64014 72.567 3.64014V5.52808H72.103C71.3883 5.52808 70.847 5.70947 70.479 6.07202C70.111 6.43481 69.927 7.06421 69.927 7.96021V12.6001H68.103V3.78418H69.927V5.06421ZM82.327 7.97607C82.327 8.30688 82.3057 8.60547 82.263 8.87207H75.527C75.5803 9.57617 75.8417 10.1414 76.311 10.5681C76.7803 10.9949 77.3563 11.208 78.039 11.208C79.0203 11.208 79.7137 10.7974 80.119 9.97607H82.087C81.8203 10.7869 81.3376 11.4507 80.639 11.968C79.9403 12.4854 79.0737 12.7441 78.039 12.7441C77.1963 12.7441 76.4417 12.5547 75.775 12.176C75.1083 11.7974 74.5857 11.2642 74.207 10.5762C73.8283 9.88818 73.639 9.09082 73.639 8.18408C73.639 7.27734 73.823 6.47998 74.191 5.79199C74.559 5.104 75.0763 4.57349 75.743 4.2002C76.4097 3.82666 77.175 3.64014 78.039 3.64014C78.871 3.64014 79.6123 3.82153 80.263 4.18408C80.9137 4.54688 81.4203 5.05615 81.783 5.71216C82.1457 6.36816 82.327 7.1228 82.327 7.97607ZM80.423 7.40015C80.4123 6.72803 80.1723 6.18945 79.703 5.78418C79.2336 5.37866 78.6523 5.17603 77.959 5.17603C77.3297 5.17603 76.791 5.37598 76.343 5.77612C75.895 6.17603 75.6283 6.71753 75.543 7.40015H80.423Z" fill="#006837"/>
</svg>
