<svg width="17" height="29" viewBox="0 0 17 29" fill="none" xmlns="http://www.w3.org/2000/svg">
<path d="M2.5764 27.0981C1.0482 26.334 0.2733 25.3342 0.2733 24.1245C0.2733 23.3262 0.609009 22.6216 1.27051 22.0286C1.93201 21.4353 2.85631 20.9612 4.02 20.6199L4.81111 23.2317C4.4232 23.3452 4.065 23.4893 3.7455 23.6611C3.42601 23.832 3.20641 23.9878 3.0921 24.1245C3.3873 24.4883 4.08121 24.813 5.15491 25.0884C6.22591 25.3611 7.35901 25.4998 8.52361 25.4998C9.6882 25.4998 10.8276 25.3611 11.9103 25.0884C12.9939 24.813 13.6941 24.489 13.9893 24.1245C13.8759 23.9888 13.6563 23.832 13.3368 23.6611C13.0164 23.49 12.6582 23.3452 12.2712 23.2317L13.0614 20.6199C14.2251 20.9612 15.1449 21.4353 15.7947 22.0286C16.4445 22.6206 16.7739 23.3262 16.7739 24.1245C16.7739 25.3342 15.999 26.334 14.4708 27.0981C12.9435 27.8623 10.9428 28.2502 8.52361 28.2502C6.1044 28.2502 4.1037 27.8623 2.5764 27.0981ZM7.836 23.9023C7.6317 23.7546 7.4814 23.5522 7.3896 23.3003C6.86311 21.6775 6.19261 20.3013 5.3952 19.2107C4.6257 18.1531 3.83911 17.0884 3.05791 16.0471C2.328 15.0437 1.68541 13.9915 1.1499 12.9197C0.61351 11.845 0.341705 10.5032 0.341705 8.93164C0.341705 6.65015 1.14 4.69629 2.71411 3.12305C4.28731 1.54907 6.24211 0.750732 8.52361 0.750732C10.8051 0.750732 12.7599 1.54907 14.3331 3.12305C15.9072 4.69629 16.7055 6.65015 16.7055 8.93164C16.7055 10.5039 16.4391 11.8459 15.9144 12.9197C15.3897 13.9924 14.7417 15.0444 13.9893 16.0471C13.3206 16.9668 12.5835 17.9722 11.6691 19.2107C10.8591 20.3042 10.1832 21.6802 9.65851 23.3003C9.56671 23.5522 9.41641 23.7546 9.21121 23.9023C9.00781 24.0498 8.7765 24.1245 8.52361 24.1245C8.27071 24.1245 8.03941 24.0498 7.836 23.9023ZM4.6734 5.08228C3.62401 6.13086 3.0921 7.42603 3.0921 8.93164C3.0921 10.2332 3.3468 11.3374 3.8481 12.2139C4.35481 13.0986 5.037 14.0994 5.87671 15.1875C6.29701 15.7402 6.73531 16.3306 7.21771 16.9929C7.67311 17.6184 8.1123 18.3179 8.52361 19.072C8.93761 18.3132 9.3777 17.613 9.8304 16.9929C10.2975 16.3503 10.7484 15.7439 11.1705 15.1875C12.0129 14.095 12.696 13.095 13.1991 12.2139C13.7004 11.3374 13.9551 10.2332 13.9551 8.93164C13.9551 7.42505 13.4232 6.12988 12.3738 5.08228C11.3244 4.03198 10.0293 3.50024 8.52361 3.50024C7.0188 3.50024 5.72371 4.03198 4.6734 5.08228ZM6.4608 10.9937C5.89021 10.4231 5.6013 9.729 5.6013 8.93164C5.6013 8.13428 5.89021 7.44043 6.4608 6.8689C7.0305 6.29907 7.72441 6.01025 8.52361 6.01025C9.3228 6.01025 10.0167 6.29907 10.5864 6.8689C11.157 7.43945 11.4459 8.1333 11.4459 8.93164C11.4459 9.72998 11.157 10.4238 10.5864 10.9937C10.0158 11.5642 9.3219 11.854 8.52361 11.854C7.72531 11.854 7.0314 11.5642 6.4608 10.9937Z" fill="#006837"/>
</svg>
